<svg width="62" height="63" viewBox="0 0 62 63" fill="none" xmlns="http://www.w3.org/2000/svg">
<path d="M62 29.4754C62 57.5423 59.0669 62 31 62C2.93307 62 0 59.0669 0 31C0 2.93307 2.93307 0 31 0C59.0669 0 62 1.40848 62 29.4754Z" fill="#FFCA28"/>
<g filter="url(#filter0_d_2_9)">
<path d="M31 7.6007C33.2223 7.6007 35.3528 7.8763 37.3913 8.4275C39.4298 8.9787 41.3514 9.75687 43.156 10.762C44.9606 11.7671 46.5814 12.983 48.0184 14.4097C49.4554 15.8363 50.7086 17.417 51.778 19.1516C52.8474 20.8863 53.6578 22.7425 54.2092 24.7204C54.7606 26.6982 55.0447 28.7733 55.0614 30.9457C55.0614 33.1019 54.7773 35.1689 54.2092 37.1467C53.6411 39.1246 52.839 40.9889 51.8031 42.7398C50.7671 44.4907 49.5139 46.0632 48.0435 47.4574C46.5731 48.8517 44.9439 50.0675 43.156 51.1051C41.3681 52.1427 39.4549 52.9289 37.4164 53.4639C35.3778 53.9989 33.239 54.2745 31 54.2907C28.7777 54.2907 26.6472 54.0151 24.6087 53.4639C22.5702 52.9127 20.6486 52.1345 18.844 51.1294C17.0394 50.1243 15.4186 48.9084 13.9816 47.4818C12.5446 46.0551 11.2914 44.4745 10.222 42.7398C9.15261 41.0051 8.34221 39.1489 7.7908 37.171C7.2394 35.1932 6.95534 33.1181 6.93863 30.9457C6.93863 28.7895 7.22269 26.7225 7.7908 24.7447C8.35892 22.7668 9.16096 20.9025 10.1969 19.1516C11.2329 17.4007 12.4861 15.8282 13.9565 14.434C15.4269 13.0398 17.0561 11.8239 18.844 10.7863C20.6319 9.74877 22.5451 8.96249 24.5836 8.4275C26.6222 7.89251 28.761 7.61691 31 7.6007ZM31 51.178C32.9216 51.178 34.7679 50.9349 36.5391 50.4485C38.3103 49.9622 39.9645 49.2813 41.5018 48.4058C43.039 47.5304 44.451 46.4766 45.7376 45.2445C47.0242 44.0124 48.1103 42.6506 48.9959 41.1591C49.8815 39.6677 50.5833 38.0546 51.1013 36.3199C51.6193 34.5853 51.8699 32.7939 51.8532 30.9457C51.8532 29.0814 51.6026 27.2899 51.1013 25.5715C50.6 23.853 49.8982 22.2481 48.9959 20.7566C48.0936 19.2651 47.0075 17.8952 45.7376 16.6469C44.4677 15.3986 43.0641 14.3448 41.5269 13.4856C39.9896 12.6264 38.327 11.9455 36.5391 11.4429C34.7512 10.9403 32.9049 10.6972 31 10.7134C29.0784 10.7134 27.2321 10.9565 25.4609 11.4429C23.6897 11.9293 22.0355 12.6102 20.4982 13.4856C18.961 14.361 17.549 15.4148 16.2624 16.6469C14.9758 17.879 13.8897 19.2408 13.0041 20.7323C12.1185 22.2238 11.4167 23.8368 10.8987 25.5715C10.3807 27.3062 10.1301 29.0976 10.1468 30.9457C10.1468 32.8101 10.3975 34.6015 10.8987 36.3199C11.4 38.0384 12.1018 39.6433 13.0041 41.1348C13.9064 42.6263 14.9925 43.9962 16.2624 45.2445C17.5323 46.4928 18.9359 47.5466 20.4732 48.4058C22.0104 49.2651 23.673 49.946 25.4609 50.4485C27.2488 50.9511 29.0951 51.1943 31 51.178ZM25.1601 29.3894H42.2286V32.502H25.1601L32.1279 39.1651L29.8721 41.4023L18.9944 30.9457L29.8721 20.4891L32.1279 22.7263L25.1601 29.3894Z" fill="#FF4C4B"/>
</g>
<defs>
<filter id="filter0_d_2_9" x="2.93863" y="7.6007" width="56.1227" height="54.69" filterUnits="userSpaceOnUse" color-interpolation-filters="sRGB">
<feFlood flood-opacity="0" result="BackgroundImageFix"/>
<feColorMatrix in="SourceAlpha" type="matrix" values="0 0 0 0 0 0 0 0 0 0 0 0 0 0 0 0 0 0 127 0" result="hardAlpha"/>
<feOffset dy="4"/>
<feGaussianBlur stdDeviation="2"/>
<feComposite in2="hardAlpha" operator="out"/>
<feColorMatrix type="matrix" values="0 0 0 0 0 0 0 0 0 0 0 0 0 0 0 0 0 0 0.25 0"/>
<feBlend mode="normal" in2="BackgroundImageFix" result="effect1_dropShadow_2_9"/>
<feBlend mode="normal" in="SourceGraphic" in2="effect1_dropShadow_2_9" result="shape"/>
</filter>
</defs>
</svg>
