<svg width="62" height="62" viewBox="0 0 62 62" fill="none" xmlns="http://www.w3.org/2000/svg">
<path d="M62 29.4754C62 57.5423 59.0669 62 31 62C2.93307 62 0 59.0669 0 31C0 2.93307 2.93307 0 31 0C59.0669 0 62 1.40848 62 29.4754Z" fill="#FFCA28"/>
<path d="M48.5952 19.6127L46.6992 17.842C44.7274 15.9874 42.3653 14.5126 39.7535 13.5053C37.1417 12.4981 34.3337 11.979 31.4967 11.979C28.6597 11.979 25.8517 12.4981 23.2399 13.5053C20.6281 14.5126 18.266 15.9874 16.2942 17.842C7.90192 25.6559 7.90192 38.3248 16.2942 46.1387C18.2663 47.9928 20.6285 49.4672 23.2403 50.4741C25.852 51.4811 28.6599 52 31.4967 52C34.3336 52 37.1414 51.4811 39.7531 50.4741C42.3649 49.4672 44.7271 47.9928 46.6992 46.1387C49.028 43.959 50.7878 41.331 51.8483 38.4492C52.9088 35.5674 53.2429 32.5056 52.8257 29.4906M48.5952 19.6127H37.1976M48.5952 19.6127V8.99999" stroke="#FF4C4B" stroke-width="3" stroke-linecap="round" stroke-linejoin="round"/>
</svg>
