<svg width="23" height="23" viewBox="0 0 23 23" fill="none" xmlns="http://www.w3.org/2000/svg">
<path d="M11.5144 14.8542C10.851 14.857 10.2017 14.6631 9.64851 14.2969C9.09535 13.9307 8.6632 13.4087 8.40671 12.7969C8.15022 12.1851 8.08091 11.511 8.20754 10.8598C8.33417 10.2086 8.65106 9.60956 9.11813 9.13846C9.58521 8.66737 10.1815 8.34536 10.8316 8.21315C11.4816 8.08094 12.1563 8.14447 12.7703 8.39571C13.3843 8.64694 13.91 9.0746 14.2809 9.6246C14.6518 10.1746 14.8513 10.8222 14.8542 11.4856C14.8561 11.9261 14.7712 12.3626 14.6044 12.7703C14.4375 13.178 14.1921 13.5488 13.8819 13.8616C13.5718 14.1744 13.2031 14.423 12.7969 14.5934C12.3906 14.7637 11.9549 14.8523 11.5144 14.8542V14.8542ZM11.4904 9.10417C11.0166 9.10607 10.5539 9.24843 10.161 9.51327C9.76806 9.7781 9.46249 10.1535 9.28291 10.592C9.10333 11.0305 9.05781 11.5124 9.15211 11.9768C9.24641 12.4412 9.4763 12.8671 9.8127 13.2009C10.1491 13.5346 10.5769 13.761 11.042 13.8516C11.5071 13.9422 11.9887 13.8928 12.4257 13.7098C12.8628 13.5267 13.2357 13.2181 13.4974 12.8231C13.7591 12.428 13.8977 11.9643 13.8958 11.4904C13.8946 11.1758 13.8314 10.8645 13.7098 10.5743C13.5882 10.2841 13.4107 10.0207 13.1873 9.79911C12.964 9.57752 12.6992 9.40211 12.408 9.28287C12.1168 9.16363 11.805 9.10291 11.4904 9.10417ZM12.0175 20.6042H11.0592C10.551 20.6065 10.0627 20.4069 9.70169 20.0492C9.34065 19.6916 9.13641 19.2053 9.13388 18.6971C9.1348 18.5804 9.1008 18.4662 9.03624 18.369C8.97168 18.2718 8.87953 18.1962 8.77163 18.1518H8.76492C8.6633 18.1101 8.55159 18.0995 8.44394 18.1213C8.33629 18.1432 8.23754 18.1965 8.16021 18.2745C7.98344 18.4567 7.77234 18.6022 7.53909 18.7025C7.30584 18.8028 7.05505 18.8559 6.80117 18.8589C6.54728 18.8618 6.29533 18.8145 6.05982 18.7196C5.82431 18.6247 5.60991 18.4842 5.42896 18.3061L4.75046 17.6353C4.57132 17.4577 4.42898 17.2465 4.33162 17.0139C4.23425 16.7812 4.18376 16.5316 4.18305 16.2794C4.18234 16.0271 4.23141 15.7773 4.32747 15.544C4.42352 15.3108 4.56466 15.0989 4.74279 14.9203C4.82326 14.8373 4.87781 14.7326 4.89976 14.6191C4.92172 14.5056 4.91013 14.3881 4.86642 14.2811V14.2811C4.82434 14.1782 4.75255 14.0901 4.6602 14.0281C4.56786 13.9662 4.45916 13.9331 4.34796 13.9332C4.09361 13.937 3.84104 13.8903 3.60486 13.7959C3.36868 13.7014 3.15358 13.561 2.97203 13.3828C2.79047 13.2047 2.64606 12.9922 2.54716 12.7579C2.44825 12.5235 2.39682 12.2719 2.39583 12.0175V11.0592C2.39354 10.551 2.59315 10.0627 2.95077 9.70169C3.30839 9.34065 3.79475 9.13641 4.30292 9.13388C4.41958 9.1348 4.53385 9.1008 4.63103 9.03624C4.7282 8.97168 4.80384 8.87953 4.84821 8.77163V8.76492C4.88953 8.66324 4.89993 8.55162 4.87811 8.44406C4.85629 8.33649 4.80322 8.23775 4.72554 8.16021C4.54353 7.98324 4.39831 7.77203 4.29825 7.53872C4.19818 7.30541 4.14524 7.05461 4.14248 6.80076C4.13972 6.54692 4.18719 6.29503 4.28216 6.0596C4.37712 5.82417 4.51771 5.60984 4.69583 5.42896L5.36667 4.74758C5.5439 4.56877 5.75463 4.42662 5.98681 4.32926C6.21899 4.2319 6.46808 4.18124 6.71985 4.18017C6.97161 4.17911 7.22112 4.22765 7.45412 4.32304C7.68712 4.41842 7.89905 4.55878 8.07779 4.73608C8.1593 4.81953 8.26394 4.87664 8.37822 4.90005C8.4925 4.92345 8.61117 4.91207 8.71892 4.86738C8.82243 4.82592 8.91112 4.75434 8.97349 4.6619C9.03585 4.56946 9.06902 4.46043 9.06871 4.34892C9.06491 4.09469 9.11152 3.84222 9.20587 3.60611C9.30021 3.37 9.44041 3.15493 9.61836 2.97333C9.79632 2.79172 10.0085 2.64718 10.2426 2.54806C10.4768 2.44894 10.7282 2.3972 10.9825 2.39583H11.9408C12.449 2.39354 12.9373 2.59315 13.2983 2.95077C13.6594 3.30839 13.8636 3.79475 13.8661 4.30292C13.8631 4.41828 13.8953 4.53183 13.9585 4.6284C14.0217 4.72498 14.1128 4.79998 14.2198 4.84342V4.84342C14.3244 4.88609 14.439 4.89785 14.5501 4.87729C14.6612 4.85674 14.7641 4.80474 14.8465 4.72746C15.0236 4.54388 15.2357 4.39764 15.4702 4.2974C15.7048 4.19716 15.9571 4.14494 16.2121 4.14383V4.14383C16.464 4.14218 16.7136 4.19044 16.9467 4.28585C17.1798 4.38125 17.3917 4.5219 17.5701 4.69967L18.2486 5.3705C18.4274 5.54773 18.5696 5.75846 18.6669 5.99064C18.7643 6.22283 18.8149 6.47191 18.816 6.72368C18.8171 6.97545 18.7685 7.22496 18.6731 7.45796C18.5777 7.69096 18.4374 7.90288 18.2601 8.08163C18.177 8.16089 18.1195 8.26322 18.0951 8.37544C18.0707 8.48766 18.0804 8.60462 18.123 8.71125L18.1298 8.72467C18.1712 8.82783 18.2427 8.91614 18.335 8.97817C18.4273 9.0402 18.5361 9.07308 18.6473 9.07254C18.9015 9.06823 19.154 9.11434 19.3903 9.20822C19.6267 9.30209 19.842 9.44187 20.024 9.61947C20.2059 9.79706 20.3509 10.009 20.4505 10.2429C20.5501 10.4769 20.6023 10.7282 20.6042 10.9825V11.9408C20.6053 12.1926 20.5568 12.4422 20.4615 12.6752C20.3662 12.9082 20.2258 13.1202 20.0486 13.299C19.8713 13.4778 19.6605 13.6199 19.4283 13.7172C19.1961 13.8145 18.9469 13.8651 18.6952 13.8661C18.5798 13.8631 18.4663 13.8953 18.3697 13.9585C18.2731 14.0217 18.1981 14.1128 18.1547 14.2198V14.2198C18.1122 14.3244 18.1006 14.439 18.1211 14.5501C18.1417 14.6611 18.1936 14.764 18.2706 14.8465C18.4528 15.0229 18.5982 15.2337 18.6983 15.4668C18.7985 15.6998 18.8513 15.9503 18.8539 16.2039C18.8565 16.4575 18.8087 16.7091 18.7134 16.9441C18.618 17.1791 18.477 17.3929 18.2984 17.573L17.6276 18.2515C17.4504 18.4303 17.2396 18.5724 17.0074 18.6698C16.7753 18.7671 16.5262 18.8178 16.2744 18.8189C16.0226 18.8199 15.7731 18.7714 15.5401 18.676C15.3071 18.5806 15.0952 18.4403 14.9165 18.263C14.8372 18.1799 14.7349 18.1224 14.6226 18.098C14.5104 18.0735 14.3935 18.0833 14.2868 18.1259C14.1817 18.168 14.0913 18.2402 14.027 18.3335C13.9627 18.4267 13.9274 18.5369 13.9255 18.6501C13.9295 18.904 13.8831 19.1561 13.7892 19.3919C13.6953 19.6277 13.5556 19.8427 13.3783 20.0243C13.2009 20.2059 12.9894 20.3507 12.7558 20.4502C12.5223 20.5497 12.2714 20.602 12.0175 20.6042V20.6042ZM9.18179 17.2874C9.44854 17.4075 9.67572 17.6008 9.83688 17.8449C9.99805 18.0891 10.0866 18.3739 10.0922 18.6664C10.0902 18.7939 10.1134 18.9206 10.1606 19.039C10.2077 19.1575 10.2779 19.2655 10.367 19.3567C10.4561 19.4479 10.5623 19.5206 10.6797 19.5706C10.797 19.6205 10.923 19.6468 11.0505 19.6478H12.0089C12.263 19.6478 12.5068 19.5468 12.6865 19.3671C12.8662 19.1873 12.9672 18.9436 12.9672 18.6894C12.966 18.3826 13.0558 18.0823 13.2252 17.8264C13.3945 17.5706 13.6359 17.3707 13.9188 17.2519C14.1951 17.136 14.4995 17.1046 14.7936 17.1617C15.0877 17.2189 15.3583 17.362 15.571 17.573C15.66 17.665 15.7664 17.7385 15.884 17.7891C16.0016 17.8397 16.1281 17.8664 16.2561 17.8678C16.3841 17.8691 16.5111 17.845 16.6297 17.7969C16.7484 17.7487 16.8563 17.6775 16.9472 17.5873L17.618 16.9088C17.7069 16.8193 17.7772 16.7131 17.825 16.5963C17.8727 16.4795 17.8969 16.3544 17.8962 16.2283C17.8955 16.1021 17.8699 15.9773 17.8208 15.8611C17.7718 15.7448 17.7002 15.6394 17.6103 15.5509C17.3961 15.3371 17.2489 15.0654 17.187 14.7692C17.125 14.473 17.1509 14.1651 17.2615 13.8834V13.8728L17.2663 13.8604C17.3788 13.5821 17.5718 13.3437 17.8205 13.1758C18.0692 13.0078 18.3624 12.9178 18.6626 12.9174C18.7899 12.9191 18.9164 12.8957 19.0346 12.8485C19.1529 12.8012 19.2606 12.731 19.3516 12.6419C19.4426 12.5529 19.5152 12.4467 19.565 12.3295C19.6148 12.2123 19.641 12.0864 19.642 11.959V11.0007C19.642 10.7465 19.541 10.5028 19.3613 10.3231C19.1816 10.1433 18.9378 10.0424 18.6837 10.0424C18.3782 10.0479 18.078 9.96135 17.8224 9.79403C17.5667 9.62671 17.3673 9.38634 17.25 9.10417V9.09746C17.1315 8.81994 17.0983 8.51344 17.1546 8.21699C17.211 7.92054 17.3543 7.64757 17.5663 7.43283C17.6584 7.34391 17.732 7.23755 17.7826 7.11994C17.8333 7.00233 17.8601 6.87582 17.8615 6.74776C17.8628 6.6197 17.8387 6.49266 17.7904 6.37401C17.7422 6.25537 17.6709 6.1475 17.5806 6.05667L16.9021 5.38583C16.8127 5.29713 16.7067 5.22692 16.5901 5.17924C16.4735 5.13155 16.3486 5.10731 16.2227 5.10792C16.0963 5.10829 15.9712 5.13392 15.8549 5.18329C15.7385 5.23266 15.6332 5.30478 15.5451 5.39542C15.3314 5.60967 15.0597 5.75683 14.7635 5.8188C14.4672 5.88077 14.1593 5.85486 13.8776 5.74425H13.8671H13.8546C13.5764 5.63174 13.338 5.43878 13.17 5.19004C13.002 4.9413 12.9121 4.64811 12.9116 4.34796C12.9134 4.22062 12.89 4.09419 12.8427 3.97593C12.7954 3.85768 12.7252 3.74994 12.6362 3.65892C12.5471 3.56789 12.4409 3.49538 12.3237 3.44554C12.2065 3.39571 12.0806 3.36954 11.9533 3.36854H10.995C10.7408 3.36854 10.497 3.46951 10.3173 3.64923C10.1376 3.82895 10.0366 4.07271 10.0366 4.32688C10.0398 4.63118 9.95157 4.92944 9.78348 5.18312C9.61538 5.43681 9.37508 5.63427 9.09363 5.75C8.81552 5.8652 8.50982 5.89664 8.21409 5.84046C7.91836 5.78427 7.64548 5.64291 7.429 5.43375C7.34001 5.34171 7.23363 5.26825 7.11603 5.21765C6.99842 5.16704 6.87194 5.14029 6.74392 5.13896C6.6159 5.13762 6.48889 5.16172 6.37025 5.20986C6.25162 5.25799 6.14373 5.32921 6.05283 5.41938L5.382 6.10075C5.29327 6.19013 5.22304 6.29612 5.1753 6.41267C5.12757 6.52921 5.10327 6.65402 5.10381 6.77996C5.10434 6.9059 5.12969 7.0305 5.17841 7.14664C5.22713 7.26277 5.29827 7.36817 5.38775 7.45679C5.60672 7.66789 5.7575 7.93968 5.82069 8.2372C5.88389 8.53472 5.85659 8.84433 5.74233 9.12621C5.73519 9.1443 5.72687 9.16191 5.71742 9.17892C5.59734 9.44567 5.40399 9.67284 5.15986 9.83401C4.91573 9.99518 4.63085 10.0837 4.33838 10.0893C4.21088 10.0873 4.08424 10.1105 3.96576 10.1577C3.84729 10.2049 3.73932 10.275 3.64809 10.3641C3.55686 10.4532 3.48418 10.5595 3.43422 10.6768C3.38427 10.7941 3.35804 10.9202 3.35704 11.0477V12.006C3.35704 12.2602 3.45801 12.5039 3.63773 12.6836C3.81745 12.8634 4.06121 12.9643 4.31538 12.9643C4.62105 12.958 4.92152 13.0441 5.17748 13.2113C5.43344 13.3786 5.63298 13.6191 5.75 13.9016V13.9112V13.9217C5.86252 14.1998 5.8919 14.5046 5.83457 14.799C5.77724 15.0935 5.63567 15.365 5.42704 15.5806C5.33535 15.6692 5.26227 15.7753 5.2121 15.8926C5.16193 16.0099 5.13568 16.136 5.13487 16.2635C5.13407 16.391 5.15873 16.5175 5.20742 16.6354C5.25611 16.7532 5.32785 16.8602 5.41842 16.95L6.09692 17.6209C6.1863 17.7096 6.29229 17.7798 6.40883 17.8276C6.52538 17.8753 6.65019 17.8996 6.77613 17.8991C6.90207 17.8985 7.02667 17.8732 7.14281 17.8245C7.25894 17.7757 7.36433 17.7046 7.45296 17.6151C7.66406 17.3962 7.93585 17.2454 8.23337 17.1822C8.53088 17.119 8.8405 17.1463 9.12238 17.2605C9.14281 17.268 9.16267 17.277 9.18179 17.2874Z" fill="#FFCA28"/>
</svg>
