<svg width="141" height="141" viewBox="0 0 141 141" fill="none" xmlns="http://www.w3.org/2000/svg">
<rect width="140" height="140" rx="19" fill="#FF4C4B"/>
<path d="M34.8742 70.0746C7.15284 65.6841 3.20887 62.0898 7.59933 34.3684C11.9898 6.64702 15.3456 4.20887 43.067 8.59933C70.7884 12.9898 73.2265 16.3456 68.8361 44.067C64.4456 71.7884 62.5957 74.465 34.8742 70.0746Z" fill="#FFCA28"/>
<path d="M111.268 133.193C83.8365 139.132 78.8591 137.209 72.9198 109.778C66.9804 82.3464 69.2264 78.8591 96.6577 72.9198C124.089 66.9804 127.576 69.2264 133.516 96.6577C139.455 124.089 138.699 127.254 111.268 133.193Z" fill="#FFCA28"/>
<path d="M72.1363 34.2246C74.7859 6.28302 78.1263 2.12594 106.064 4.81181C134.003 7.49767 136.645 10.6983 133.996 38.6399C131.346 66.5815 128.15 69.2208 100.212 66.5349C72.2734 63.8491 69.4867 62.1662 72.1363 34.2246Z" fill="#FFCA28"/>
<path d="M8.98338 110.757C5.67398 82.8854 8.06098 78.113 35.9321 74.8036C63.8033 71.4942 67.0617 74.061 70.3711 101.932C73.6805 129.803 71.1137 133.062 43.2426 136.371C15.3715 139.681 12.2928 138.628 8.98338 110.757Z" fill="#FFCA28"/>
</svg>
